<?xml version="1.0" standalone="no"?>
<!DOCTYPE svg PUBLIC "-//W3C//DTD SVG 20010904//EN"
 "http://www.w3.org/TR/2001/REC-SVG-20010904/DTD/svg10.dtd">
<svg version="1.0" xmlns="http://www.w3.org/2000/svg"
 width="500.000000pt" height="500.000000pt" viewBox="0 0 500.000000 500.000000"
 preserveAspectRatio="xMidYMid meet">
<metadata>
Created by potrace 1.11, written by Peter Selinger 2001-2013
</metadata>
<g transform="translate(0.000000,500.000000) scale(0.100000,-0.100000)"
fill="#000000" stroke="none">
<path d="M2073 3694 c5 -8 -7 -12 -35 -12 -22 -1 -44 -5 -47 -10 -3 -5 -21
-13 -38 -17 -23 -5 -33 -12 -33 -26 0 -10 -5 -19 -11 -19 -6 0 -9 -7 -6 -15 4
-8 1 -17 -5 -21 -7 -4 -6 -9 3 -15 11 -7 11 -9 -1 -9 -11 0 -15 -11 -15 -37 0
-24 6 -41 15 -45 13 -6 13 -7 -1 -7 -13 -1 -15 -9 -9 -44 3 -23 10 -48 14 -55
5 -8 2 -11 -6 -10 -7 2 -12 -3 -10 -10 1 -8 -1 -11 -6 -8 -11 7 -92 -66 -92
-83 0 -7 -4 -9 -10 -6 -5 3 -10 2 -10 -3 0 -4 -9 -18 -20 -30 -12 -12 -17 -22
-13 -22 4 0 3 -4 -2 -8 -16 -11 -65 -87 -65 -100 0 -7 -4 -12 -10 -12 -5 0
-10 -8 -10 -18 0 -10 -5 -23 -10 -28 -6 -6 -13 -24 -16 -40 -3 -16 -10 -32
-16 -35 -6 -4 -8 -16 -5 -28 3 -12 1 -19 -4 -15 -5 3 -10 -2 -10 -10 -3 -29
-4 -34 -11 -42 -5 -4 -8 -22 -8 -41 0 -18 -4 -33 -8 -33 -4 0 -8 -27 -7 -59 0
-33 -4 -59 -8 -58 -5 1 -10 -33 -11 -76 -1 -53 -6 -81 -15 -86 -10 -6 -10 -10
-1 -13 6 -2 13 -18 14 -35 1 -18 -2 -30 -6 -27 -11 7 -10 -4 3 -28 8 -15 8
-19 0 -13 -8 4 -10 -2 -5 -22 3 -15 7 -55 9 -88 3 -58 12 -144 20 -195 2 -14
6 -45 9 -70 3 -25 10 -46 16 -48 8 -3 7 -8 -1 -18 -6 -8 -7 -14 -2 -14 5 0 10
-6 11 -12 0 -7 3 -24 7 -38 3 -14 7 -30 9 -36 1 -7 7 -18 14 -26 6 -8 9 -18 5
-21 -3 -4 -1 -13 5 -20 6 -7 10 -23 7 -35 -2 -12 0 -22 6 -22 5 0 9 -7 9 -15
0 -8 4 -23 10 -33 18 -31 70 -152 70 -162 0 -6 5 -10 10 -10 6 0 10 -7 10 -15
0 -8 5 -15 10 -15 6 0 10 -9 10 -21 0 -11 4 -18 9 -15 5 4 12 -7 16 -24 4 -17
11 -28 16 -24 5 3 9 0 9 -7 0 -7 18 -34 40 -60 22 -26 40 -52 40 -58 0 -6 3
-10 8 -9 4 2 27 -16 52 -40 25 -23 66 -53 92 -66 26 -13 45 -26 43 -30 -3 -3
-2 -4 1 -2 3 3 22 -1 42 -8 21 -7 44 -12 52 -11 8 0 18 -3 21 -8 3 -4 58 -9
122 -9 l117 -1 0 -123 c0 -68 0 -127 -1 -130 0 -4 5 -11 13 -15 7 -5 8 -9 3
-9 -6 0 -10 -16 -11 -35 0 -19 3 -32 7 -29 4 2 8 -72 8 -165 l2 -170 -35 -6
c-19 -4 -37 -12 -39 -19 -3 -7 -4 -93 -3 -192 l1 -179 291 -3 290 -2 -3 47
c-2 27 -4 59 -4 73 -1 14 -6 31 -13 39 -9 12 -8 13 3 6 11 -6 12 -5 5 6 -9 14
-15 54 -14 97 0 12 -5 22 -11 22 -8 0 -8 4 0 13 7 10 7 17 0 24 -8 8 -8 17 0
31 8 15 7 23 -4 32 -8 7 -15 9 -15 5 0 -4 -8 -1 -17 6 -15 12 -16 12 -8 -1 7
-12 6 -13 -6 -3 -11 9 -15 46 -17 170 -4 180 -7 256 -15 296 -3 15 -1 25 4 21
5 -3 9 2 9 11 0 9 -5 13 -11 9 -8 -5 -8 -1 0 14 7 14 8 23 1 27 -15 9 -12 38
3 29 10 -6 10 -4 0 7 -17 17 -17 42 0 33 10 -6 10 -4 0 7 -9 8 -13 46 -13 107
0 98 2 103 52 136 15 10 25 22 22 27 -3 5 4 9 16 9 12 0 19 4 15 9 -3 6 4 15
15 21 11 6 18 15 15 21 -4 5 2 9 11 9 10 0 15 3 11 6 -7 8 15 33 25 28 3 -2 9
9 13 26 4 16 11 30 16 30 5 0 21 26 36 58 15 31 30 58 35 60 4 2 4 10 1 18 -3
8 0 14 7 14 6 0 8 5 5 10 -3 5 -2 10 4 10 5 0 8 9 6 20 -2 11 0 20 6 20 5 0 9
16 9 36 0 19 4 33 8 30 5 -3 8 15 7 40 -1 25 3 48 8 51 6 4 7 1 2 -7 -5 -9 -4
-11 4 -6 9 6 9 11 1 21 -6 7 -7 15 -3 18 4 3 8 61 7 129 -1 96 -4 122 -14 120
-10 -2 -11 1 -3 10 5 7 8 25 7 41 -2 19 1 25 9 20 7 -4 6 1 -2 11 -11 13 -15
56 -16 179 -2 89 -6 171 -10 181 -6 14 -5 17 4 11 10 -6 11 -3 2 12 -5 11 -11
55 -12 97 -1 42 -5 76 -9 76 -3 0 -7 12 -7 28 -1 51 -7 92 -13 92 -3 0 -7 10
-8 23 -5 64 -11 90 -23 97 -6 5 -9 15 -6 24 4 9 3 16 -1 16 -4 0 -9 12 -10 28
-1 15 -7 29 -12 30 -6 2 -10 10 -10 18 0 21 -86 185 -115 220 -5 7 -27 33 -48
58 -21 25 -45 46 -53 46 -9 0 -12 5 -9 10 3 6 1 10 -5 10 -6 0 -20 9 -32 19
-11 11 -27 17 -37 14 -9 -4 -13 -3 -9 2 9 10 -40 37 -53 29 -5 -3 -12 1 -15
10 -3 8 -14 13 -25 11 -10 -2 -19 0 -19 4 0 8 -17 11 -57 11 -12 0 -25 5 -28
11 -5 7 -11 6 -21 -2 -10 -8 -14 -8 -14 0 0 14 -146 15 -155 1 -3 -5 -12 -10
-18 -10 -7 0 -6 4 3 10 9 6 10 10 3 10 -13 0 -11 99 2 120 4 6 1 9 -7 8 -7 -2
-12 2 -11 7 1 6 -7 11 -18 11 -10 0 -19 -4 -19 -9 0 -4 -4 -5 -10 -2 -12 8
-109 13 -115 6 -10 -9 -90 -7 -104 3 -11 8 -13 8 -8 0z"/>
</g>
</svg>
